<svg width="51" height="50" viewBox="0 0 51 50" fill="none" xmlns="http://www.w3.org/2000/svg">
<path d="M18.0642 49.97C21.4781 49.97 24.2455 47.2004 24.2455 43.784C24.2455 40.3675 21.4781 37.5979 18.0642 37.5979C14.6503 37.5979 11.8828 40.3675 11.8828 43.784C11.8828 47.2004 14.6503 49.97 18.0642 49.97Z" fill="url(#paint0_linear)"/>
<path d="M37.8687 37.5378C34.4382 37.2 31.3837 39.7091 31.0461 43.1422C30.7085 46.5753 33.2157 49.6322 36.6462 49.97C37.0527 50.01 37.4622 50.01 37.8687 49.97C41.2992 49.6322 43.8064 46.5753 43.4688 43.1422C43.1772 40.1762 40.8323 37.8297 37.8687 37.5378Z" fill="url(#paint1_linear)"/>
<path d="M50.5912 13.9947C50.2841 13.5345 49.7638 13.2628 49.2109 13.274H42.3694V13.1539C42.3698 5.88965 36.4859 0.000469239 29.2273 2.80396e-08C21.9687 -0.000469183 16.084 5.88789 16.0836 13.1521C16.0836 13.1527 16.0836 13.1533 16.0836 13.1539V13.274H10.9824L9.24204 5.34619C9.04876 4.53973 8.33035 3.96952 7.50166 3.96483H0V7.56837H6.06134L11.6426 33.2135C11.7899 34.0567 12.5278 34.6677 13.383 34.655H44.7699C45.5986 34.6502 46.3169 34.0801 46.5103 33.2736L50.9512 15.4962C51.0815 14.9668 50.9473 14.4071 50.5912 13.9947ZM29.2265 22.7032C23.9565 22.7032 19.6843 18.4278 19.6843 13.1539C19.6843 7.87993 23.9565 3.60448 29.2265 3.60448C34.4964 3.60448 38.7686 7.87993 38.7686 13.1539C38.7359 18.4142 34.4828 22.6704 29.2265 22.7032Z" fill="url(#paint2_linear)"/>
<path d="M27.7856 13.334L24.4849 9.97072L21.9043 12.4932L26.4653 17.1177C26.7977 17.4572 27.2506 17.6515 27.7256 17.6583C28.1943 17.6813 28.6512 17.5071 28.9859 17.1778L36.5475 10.0308L34.087 7.38818L27.7856 13.334Z" fill="url(#paint3_linear)"/>
<defs>
<linearGradient id="paint0_linear" x1="1.97075" y1="52.3361" x2="23.8956" y2="36.7559" gradientUnits="userSpaceOnUse">
<stop stop-color="#4C1286"/>
<stop offset="1" stop-color="#844FFC"/>
</linearGradient>
<linearGradient id="paint1_linear" x1="21.0066" y1="52.3892" x2="43.1453" y2="36.6563" gradientUnits="userSpaceOnUse">
<stop stop-color="#4C1286"/>
<stop offset="1" stop-color="#844FFC"/>
</linearGradient>
<linearGradient id="paint2_linear" x1="-40.8903" y1="41.2828" x2="24.0736" y2="-26.7071" gradientUnits="userSpaceOnUse">
<stop stop-color="#4C1286"/>
<stop offset="1" stop-color="#844FFC"/>
</linearGradient>
<linearGradient id="paint3_linear" x1="10.1638" y1="19.6248" x2="29.4378" y2="0.0849535" gradientUnits="userSpaceOnUse">
<stop stop-color="#4C1286"/>
<stop offset="1" stop-color="#844FFC"/>
</linearGradient>
</defs>
</svg>
