<svg width="58" height="50" viewBox="0 0 58 50" fill="none" xmlns="http://www.w3.org/2000/svg">
<path d="M41.8881 0H32.6817C31.9191 0 31.3008 0.610521 31.3008 1.36364V4.09091C31.3008 4.84402 31.9191 5.45455 32.6817 5.45455H41.8881C42.6508 5.45455 43.269 4.84402 43.269 4.09091V1.36364C43.269 0.610521 42.6508 0 41.8881 0Z" fill="url(#paint0_linear)"/>
<path d="M15.1908 20H5.98447C5.61822 20 5.26697 20.1437 5.00799 20.3994C4.74901 20.6551 4.60352 21.002 4.60352 21.3636C4.60352 21.7253 4.74901 22.0721 5.00799 22.3279C5.26697 22.5836 5.61822 22.7273 5.98447 22.7273H15.1908C15.5571 22.7273 15.9083 22.5836 16.1673 22.3279C16.4263 22.0721 16.5718 21.7253 16.5718 21.3636C16.5718 21.002 16.4263 20.6551 16.1673 20.3994C15.9083 20.1437 15.5571 20 15.1908 20Z" fill="url(#paint1_linear)"/>
<path d="M14.73 32.2728C14.73 31.9112 14.5845 31.5643 14.3255 31.3086C14.0665 31.0528 13.7153 30.9092 13.349 30.9092H4.14267C3.77642 30.9092 3.42517 31.0528 3.16619 31.3086C2.90721 31.5643 2.76172 31.9112 2.76172 32.2728C2.76172 32.6345 2.90721 32.9813 3.16619 33.2371C3.42517 33.4928 3.77642 33.6365 4.14267 33.6365H13.349C13.7153 33.6365 14.0665 33.4928 14.3255 33.2371C14.5845 32.9813 14.73 32.6345 14.73 32.2728Z" fill="url(#paint2_linear)"/>
<path d="M14.2707 36.3638H7.82626C7.46001 36.3638 7.10876 36.5074 6.84978 36.7632C6.59081 37.0189 6.44531 37.3657 6.44531 37.7274C6.44531 38.0891 6.59081 38.4359 6.84978 38.6916C7.10876 38.9474 7.46001 39.091 7.82626 39.091H14.2707C14.637 39.091 14.9882 38.9474 15.2472 38.6916C15.5062 38.4359 15.6517 38.0891 15.6517 37.7274C15.6517 37.3657 15.5062 37.0189 15.2472 36.7632C14.9882 36.5074 14.637 36.3638 14.2707 36.3638Z" fill="url(#paint3_linear)"/>
<path d="M14.7302 26.8182C14.7302 26.4566 14.5847 26.1097 14.3257 25.854C14.0667 25.5983 13.7155 25.4546 13.3492 25.4546H1.38095C1.0147 25.4546 0.66345 25.5983 0.404472 25.854C0.145493 26.1097 0 26.4566 0 26.8182C0 27.1799 0.145493 27.5267 0.404472 27.7825C0.66345 28.0382 1.0147 28.1819 1.38095 28.1819H13.3492C13.7155 28.1819 14.0667 28.0382 14.3257 27.7825C14.5847 27.5267 14.7302 27.1799 14.7302 26.8182Z" fill="url(#paint4_linear)"/>
<path d="M37.2856 29.5454V14.0908C28.6556 14.0908 21.6348 21.0237 21.6348 29.5454C21.6348 38.0671 28.6556 44.9999 37.2856 44.9999C45.9155 44.9999 52.9363 38.0671 52.9363 29.5454H37.2856Z" fill="url(#paint5_linear)"/>
<path d="M52.4331 15.6085L53.9138 14.1462C54.0437 14.02 54.1471 13.8696 54.2179 13.7037C54.2887 13.5378 54.3255 13.3597 54.3262 13.1797C54.327 12.9997 54.2916 12.8213 54.2222 12.6549C54.1528 12.4884 54.0507 12.3372 53.9218 12.2099C53.7929 12.0826 53.6397 11.9818 53.4712 11.9132C53.3026 11.8447 53.122 11.8098 52.9397 11.8105C52.7574 11.8113 52.577 11.8476 52.409 11.9175C52.2411 11.9874 52.0887 12.0895 51.9609 12.2178L50.4198 13.7395C47.4518 11.3252 43.8596 9.77815 40.0485 9.2729V6.81836H34.5246V9.2729C30.7136 9.77795 27.1214 11.3248 24.1534 13.7388L22.6122 12.2171C22.4844 12.0888 22.3321 11.9867 22.1641 11.9168C21.9961 11.8469 21.8157 11.8106 21.6334 11.8098C21.4511 11.8091 21.2705 11.844 21.1019 11.9126C20.9334 11.9811 20.7802 12.0819 20.6513 12.2092C20.5224 12.3365 20.4203 12.4877 20.3509 12.6542C20.2815 12.8206 20.2461 12.999 20.2469 13.179C20.2476 13.359 20.2844 13.5371 20.3552 13.703C20.426 13.8689 20.5294 14.0193 20.6593 14.1455L22.14 15.6078C18.559 19.387 16.5684 24.3701 16.5723 29.5456C16.5723 40.8243 25.8647 50.0002 37.2866 50.0002C48.7084 50.0002 58.0008 40.8243 58.0008 29.5456C58.0045 24.3703 56.0139 19.3875 52.4331 15.6085ZM37.2866 46.3638C33.918 46.3638 30.6251 45.3774 27.8242 43.5294C25.0234 41.6814 22.8404 39.0548 21.5513 35.9817C20.2622 32.9086 19.9249 29.527 20.5821 26.2646C21.2392 23.0022 22.8614 20.0054 25.2433 17.6534C27.6252 15.3013 30.66 13.6995 33.9638 13.0506C37.2677 12.4017 40.6922 12.7347 43.8043 14.0077C46.9165 15.2806 49.5765 17.4362 51.4479 20.202C53.3194 22.9677 54.3183 26.2193 54.3183 29.5456C54.3183 31.7542 53.8778 33.9412 53.0218 35.9817C52.1659 38.0221 50.9114 39.8762 49.3298 41.4379C47.7483 42.9996 45.8707 44.2384 43.8043 45.0836C41.7379 45.9288 39.5232 46.3638 37.2866 46.3638Z" fill="url(#paint6_linear)"/>
<defs>
<linearGradient id="paint0_linear" x1="21.705" y1="6.4977" x2="31.0047" y2="-8.01375" gradientUnits="userSpaceOnUse">
<stop stop-color="#4C1286"/>
<stop offset="1" stop-color="#844FFC"/>
</linearGradient>
<linearGradient id="paint1_linear" x1="-4.99227" y1="23.2488" x2="-2.0179" y2="13.9663" gradientUnits="userSpaceOnUse">
<stop stop-color="#4C1286"/>
<stop offset="1" stop-color="#844FFC"/>
</linearGradient>
<linearGradient id="paint2_linear" x1="-6.83407" y1="34.158" x2="-3.8597" y2="24.8755" gradientUnits="userSpaceOnUse">
<stop stop-color="#4C1286"/>
<stop offset="1" stop-color="#844FFC"/>
</linearGradient>
<linearGradient id="paint3_linear" x1="-0.93606" y1="39.6126" x2="2.69719" y2="30.8905" gradientUnits="userSpaceOnUse">
<stop stop-color="#4C1286"/>
<stop offset="1" stop-color="#844FFC"/>
</linearGradient>
<linearGradient id="paint4_linear" x1="-11.8102" y1="28.7034" x2="-9.31455" y2="19.1176" gradientUnits="userSpaceOnUse">
<stop stop-color="#4C1286"/>
<stop offset="1" stop-color="#844FFC"/>
</linearGradient>
<linearGradient id="paint5_linear" x1="-3.4619" y1="50.9111" x2="51.5497" y2="11.2921" gradientUnits="userSpaceOnUse">
<stop stop-color="#4C1286"/>
<stop offset="1" stop-color="#844FFC"/>
</linearGradient>
<linearGradient id="paint6_linear" x1="-16.6439" y1="58.2585" x2="58.8066" y2="6.77932" gradientUnits="userSpaceOnUse">
<stop stop-color="#4C1286"/>
<stop offset="1" stop-color="#844FFC"/>
</linearGradient>
</defs>
</svg>
