<svg width="55" height="50" viewBox="0 0 55 50" fill="none" xmlns="http://www.w3.org/2000/svg">
<path d="M14.3218 39.7728C10.653 39.7728 7.3896 37.4432 6.20458 33.9751L6.12443 33.7137C5.84496 32.7953 5.72788 32.0229 5.72788 31.2501V15.7545L0.16825 34.159C-0.546793 36.866 1.08262 39.6725 3.81648 40.4203L39.2535 49.8319C39.6958 49.9455 40.1381 50 40.5737 50C42.856 50 44.9416 48.4977 45.5261 46.2838L47.5907 39.7728H14.3218Z" fill="url(#paint0_linear)"/>
<path d="M20.6246 15.9093C23.1524 15.9093 25.2078 13.8705 25.2078 11.3637C25.2078 8.85682 23.1524 6.81812 20.6246 6.81812C18.0968 6.81812 16.041 8.85682 16.041 11.3637C16.041 13.8705 18.0968 15.9093 20.6246 15.9093Z" fill="url(#paint1_linear)"/>
<path d="M49.271 0H14.8952C11.7375 0 9.16602 2.55015 9.16602 5.68206V30.6816C9.16602 33.8136 11.7375 36.3637 14.8952 36.3637H49.271C52.4291 36.3637 55.0006 33.8136 55.0006 30.6816V5.68206C55.0006 2.55015 52.4291 0 49.271 0ZM14.8952 4.54557H49.271C49.9038 4.54557 50.417 5.05451 50.417 5.68206V21.8161L43.1776 13.4386C42.4097 12.5456 41.2981 12.0682 40.1042 12.0412C38.9171 12.0479 37.8034 12.5705 37.0426 13.4752L28.5309 23.6067L25.758 20.8635C24.1907 19.3092 21.6398 19.3092 20.0746 20.8635L13.7496 27.134V5.68206C13.7496 5.05451 14.2628 4.54557 14.8952 4.54557Z" fill="url(#paint2_linear)"/>
<defs>
<linearGradient id="paint0_linear" x1="-38.1568" y1="56.5493" x2="26.1013" y2="-6.95683" gradientUnits="userSpaceOnUse">
<stop stop-color="#4C1286"/>
<stop offset="1" stop-color="#844FFC"/>
</linearGradient>
<linearGradient id="paint1_linear" x1="8.6914" y1="17.6479" x2="24.8493" y2="6.06139" gradientUnits="userSpaceOnUse">
<stop stop-color="#4C1286"/>
<stop offset="1" stop-color="#844FFC"/>
</linearGradient>
<linearGradient id="paint2_linear" x1="-27.5827" y1="43.3181" x2="40.2484" y2="-17.4848" gradientUnits="userSpaceOnUse">
<stop stop-color="#4C1286"/>
<stop offset="1" stop-color="#844FFC"/>
</linearGradient>
</defs>
</svg>
