<svg width="50" height="50" viewBox="0 0 50 50" fill="none" xmlns="http://www.w3.org/2000/svg">
<path d="M41.5425 15.5872L45.5937 10.3772L39.6227 4.40625L34.4127 8.45742C33.0294 7.66631 31.5646 7.0584 30.041 6.63926L29.2229 0H20.7771L19.9589 6.63936C18.4354 7.0585 16.9705 7.6665 15.5872 8.45752L10.3772 4.40635L4.40625 10.3773L8.45742 15.5873C7.66631 16.9706 7.0584 18.4354 6.63926 19.959L0 20.7771V29.2229L6.63936 30.0411C7.0585 31.5646 7.6665 33.0295 8.45752 34.4128L4.40635 39.6228L10.3773 45.5938L15.5873 41.5426C16.9706 42.3337 18.4354 42.9416 19.959 43.3607L20.7771 50H29.2229L30.0411 43.3606C31.5646 42.9415 33.0295 42.3335 34.4128 41.5425L39.6228 45.5937L45.5938 39.6227L41.5426 34.4127C42.3337 33.0294 42.9416 31.5646 43.3607 30.041L50 29.2229V20.7771L43.3606 19.9589C42.9415 18.4354 42.3335 16.9705 41.5425 15.5872ZM25 38.1836C17.7302 38.1836 11.8164 32.2698 11.8164 25C11.8164 17.7302 17.7302 11.8164 25 11.8164C32.2698 11.8164 38.1836 17.7302 38.1836 25C38.1836 32.2698 32.2698 38.1836 25 38.1836Z" fill="url(#paint0_linear)"/>
<path d="M27.8573 20.6055C26.6313 20.6055 25.6901 21.0475 25.0006 21.634C24.311 21.0475 23.3698 20.6055 22.1438 20.6055C19.7206 20.6055 17.8223 22.3707 17.8223 24.6252C17.8223 27.0113 19.8593 28.4289 22.6774 30.3901L25.0006 32.0324L27.3237 30.3902C30.1418 28.429 32.1789 27.0113 32.1789 24.6253C32.1789 22.3707 30.2806 20.6055 27.8573 20.6055Z" fill="url(#paint1_linear)"/>
<defs>
<linearGradient id="paint0_linear" x1="-40.0885" y1="59.5622" x2="48.5393" y2="-3.46667" gradientUnits="userSpaceOnUse">
<stop stop-color="#4C1286"/>
<stop offset="1" stop-color="#844FFC"/>
</linearGradient>
<linearGradient id="paint1_linear" x1="6.31154" y1="34.2178" x2="27.6192" y2="15.1794" gradientUnits="userSpaceOnUse">
<stop stop-color="#4C1286"/>
<stop offset="1" stop-color="#844FFC"/>
</linearGradient>
</defs>
</svg>
