<svg
  width="76"
  height="38"
  viewBox="0 0 76 38"
  fill="none"
  xmlns="http://www.w3.org/2000/svg"
            >
  <path
    fill-rule="evenodd"
    clip-rule="evenodd"
    d="M46.2291 7.06053C45.6875 7.14868 45.1459 7.28971 44.5955 7.43075C44.2898 7.51008 43.984 7.58941 43.6695 7.65993V0H38.4106V15.787C38.4281 21.3843 43.5472 25.5272 49.2342 24.5929C54.2572 23.7643 57.5767 19.2071 56.7556 14.3062C55.9694 9.5727 51.1735 6.26721 46.2291 7.06053ZM47.6268 20.0886C45.1284 20.0886 43.1891 18.2111 43.2065 15.8047C43.2065 13.4423 45.1633 11.5824 47.6268 11.5648C50.1252 11.5648 52.1082 13.4423 52.1082 15.8311C52.1082 18.1934 50.1077 20.0886 47.6268 20.0886Z"
    fill="#fff"
              />
              <path
                fill-rule="evenodd"
                clip-rule="evenodd"
                d="M9.26855 6.92826C4.13197 6.91063 0 10.886 0 15.8487C0 20.7496 4.08829 24.7338 9.13751 24.7338C14.3352 24.7515 18.4235 20.8466 18.4497 15.8751C18.4585 10.9301 14.3527 6.94589 9.26855 6.92826ZM9.13751 20.1238C6.67405 20.0709 4.71726 18.1317 4.77841 15.7693C4.83956 13.363 6.81382 11.5295 9.29475 11.5471C11.7582 11.5824 13.7587 13.5216 13.715 15.8663C13.6539 18.2903 11.6184 20.1679 9.13751 20.1238Z"
                fill="#fff"
              />
              <path
                class="letter"
                style="--i: 1"
                fill-rule="evenodd"
                clip-rule="evenodd"
                d="M3.51294 29.7406C3.10237 29.7406 2.75294 29.8199 2.46466 29.9874C2.17639 30.1549 1.90558 30.4017 1.68719 30.719V26.3822H0.158447V37.8148H1.495L1.60857 36.8716C1.81822 37.2242 2.08903 37.4887 2.42099 37.6826C2.75294 37.8677 3.11984 37.9647 3.54789 37.9647C4.40398 37.9647 5.05916 37.6473 5.52215 37.0303C5.98514 36.4133 6.221 35.5671 6.221 34.5181V33.4516C6.221 32.3233 5.98514 31.4418 5.52215 30.7631C5.02422 30.0756 4.3603 29.7406 3.51294 29.7406ZM4.67479 34.5093C4.67479 35.2233 4.56122 35.7874 4.30789 36.2017C4.05456 36.616 3.67019 36.8188 3.12857 36.8188C2.77915 36.8188 2.49087 36.7218 2.23754 36.5543C2.00167 36.3692 1.80949 36.1224 1.67845 35.8051V31.9971C1.81822 31.6622 2.01041 31.3977 2.23754 31.2126C2.4734 31.0099 2.76168 30.9129 3.1111 30.9129C3.65271 30.9129 4.04582 31.1421 4.29042 31.6093C4.54375 32.0765 4.65732 32.6759 4.65732 33.4516V34.5181H4.67479V34.5093Z"
                fill="#fff"
              />
              <path
                class="letter"
                style="--i: 2"
                d="M15.3043 35.8227C15.147 36.14 14.9548 36.3868 14.7015 36.5543C14.4482 36.7218 14.1424 36.8187 13.7493 36.8187C13.3387 36.8187 13.0505 36.6512 12.8583 36.3075C12.6661 35.9725 12.57 35.3907 12.57 34.5798V29.8816H11.0413V34.5533C11.0413 35.7169 11.2509 36.5807 11.6615 37.1272C12.0721 37.6737 12.6486 37.9558 13.3912 37.9558C13.8367 37.9558 14.221 37.8412 14.553 37.6385C14.885 37.4357 15.1732 37.1272 15.3829 36.7394L15.479 37.8059H16.8592V29.8816H15.3043V35.8227Z"
                fill="#fff"
              />
              <path
                class="letter"
                style="--i: 3"
                d="M23.5597 32.5966C23.7344 32.7817 24.145 33.0109 24.739 33.293C25.5951 33.5927 26.2328 33.9276 26.6783 34.3419C27.0889 34.7209 27.2986 35.2058 27.2986 35.7875C27.2986 36.4486 27.0452 36.9687 26.5211 37.383C25.9969 37.7973 25.3156 38 24.4857 38C23.5772 38 22.8783 37.7356 22.3542 37.2508C21.83 36.7395 21.5942 36.1577 21.6204 35.5055L21.6378 35.4702H23.0705C23.088 35.9814 23.2452 36.3517 23.516 36.5808C23.7868 36.81 24.1188 36.9158 24.5206 36.9158C24.905 36.9158 25.2195 36.8188 25.4553 36.6161C25.665 36.4134 25.7873 36.1666 25.7873 35.8492C25.7873 35.5319 25.6912 35.2675 25.4728 35.0647C25.2631 34.862 24.87 34.6328 24.2935 34.3684C23.4374 34.051 22.8172 33.7073 22.4153 33.3547C22.0135 33.0021 21.8126 32.5261 21.8126 31.962C21.8126 31.3449 22.0484 30.8337 22.5464 30.4018C23.0443 29.9698 23.6907 29.7671 24.5031 29.7671C25.3592 29.7671 26.0144 29.9963 26.5211 30.4635C27.0278 30.9306 27.2549 31.4948 27.2374 32.1911L27.2199 32.2264H25.7436C25.7436 31.8474 25.63 31.5124 25.4117 31.248C25.202 30.9659 24.8875 30.8337 24.5031 30.8337C24.1188 30.8337 23.8218 30.9483 23.6121 31.151C23.4024 31.3537 23.2801 31.6006 23.2801 31.8826C23.2889 32.1823 23.3675 32.4291 23.5597 32.5966Z"
                fill="#fff"
              />
              <path
                class="letter"
                style="--i: 4"
                d="M33.7026 26.3822H32.1738V27.8102H33.7026V26.3822Z"
                fill="#fff"
              />
              <path
                class="letter"
                style="--i: 4"
                d="M32.1738 29.8904H33.7026V37.8147H32.1738V29.8904Z"
                fill="#fff"
              />
              <path
                class="letter"
                style="--i: 6"
                d="M42.4728 29.7406C42.0273 29.7406 41.6429 29.8552 41.2935 30.0932C40.9441 30.3223 40.6558 30.6573 40.4374 31.0716L40.3588 29.9081H38.9436V37.8148H40.4723V31.9354C40.6296 31.6181 40.8218 31.3537 41.0576 31.1686C41.2935 30.9834 41.5818 30.8865 41.8875 30.8865C42.333 30.8865 42.665 31.0363 42.8747 31.336C43.0843 31.6357 43.2066 32.1646 43.2066 32.8962V37.8148H44.7354V32.8962C44.7354 31.8032 44.5432 31.0187 44.1326 30.5075C43.7307 29.9874 43.1891 29.7406 42.4728 29.7406Z"
                fill="#fff"
              />
              <path
                class="letter"
                style="--i: 7"
                fill-rule="evenodd"
                clip-rule="evenodd"
                d="M50.4406 30.7543C51.0259 30.0755 51.7422 29.7406 52.6332 29.7406C53.5679 29.7406 54.2843 30.0403 54.7647 30.6573C55.2714 31.2743 55.5247 32.1029 55.5247 33.1342V34.1655H51.122V34.4829C51.122 35.1616 51.2792 35.7257 51.5849 36.1753C51.8994 36.6248 52.3449 36.854 52.904 36.854C53.3321 36.854 53.6815 36.8011 53.9872 36.6689C54.2755 36.5367 54.5725 36.3516 54.8433 36.1048L55.3325 37.0215C55.0792 37.3035 54.7298 37.5327 54.3017 37.7178C53.8737 37.8853 53.367 37.9823 52.8079 37.9823C51.8208 37.9823 51.0433 37.6649 50.458 37.0038C49.8727 36.3427 49.5845 35.5054 49.5845 34.4917V33.3281C49.5845 32.2792 49.864 31.433 50.4406 30.7543ZM51.122 33.099H54.0135V32.7993C54.0135 32.2351 53.8999 31.768 53.664 31.4066C53.4282 31.0452 53.0787 30.86 52.6332 30.86C52.1877 30.86 51.8383 31.0892 51.5675 31.4947C51.2967 31.9178 51.1569 32.4643 51.122 33.099Z"
                fill="#fff"
              />
              <path
                class="letter"
                style="--i: 8"
                d="M63.0452 33.293C62.4424 33.0109 62.0406 32.7817 61.8658 32.5966C61.6911 32.4291 61.595 32.1823 61.595 31.8826C61.595 31.6006 61.7086 31.3537 61.927 31.151C62.1366 30.9483 62.4337 30.8337 62.818 30.8337C63.2024 30.8337 63.5169 30.9659 63.7265 31.248C63.9362 31.5124 64.0585 31.8474 64.0585 32.2264H65.5348L65.5523 32.1911C65.5698 31.4948 65.3426 30.9306 64.836 30.4635C64.3293 29.9963 63.6741 29.7671 62.818 29.7671C62.0056 29.7671 61.3592 29.9698 60.8612 30.4018C60.3633 30.8337 60.1274 31.3361 60.1274 31.962C60.1274 32.5261 60.3196 32.9933 60.7302 33.3547C61.1408 33.7073 61.761 34.051 62.6084 34.3684C63.1937 34.6328 63.578 34.8532 63.7877 35.0647C63.9973 35.2675 64.1022 35.5319 64.1022 35.8492C64.1022 36.1666 63.9886 36.4134 63.7702 36.6161C63.5344 36.8188 63.2286 36.9158 62.8355 36.9158C62.4249 36.9158 62.1017 36.8012 61.8309 36.5808C61.5601 36.3605 61.4028 35.9814 61.3854 35.4702H59.9527L59.9353 35.5055C59.9178 36.1666 60.1449 36.7483 60.6691 37.2508C61.1932 37.7356 61.892 38 62.8006 38C63.6304 38 64.3118 37.7973 64.836 37.383C65.3601 36.9687 65.6134 36.4486 65.6134 35.7875C65.6134 35.2058 65.4038 34.7209 64.9932 34.3419C64.539 33.9276 63.9013 33.5927 63.0452 33.293Z"
                fill="#fff"
              />
              <path
                class="letter"
                style="--i: 9"
                d="M71.9825 32.5966C72.1573 32.7817 72.5678 33.0109 73.1619 33.293C74.018 33.5927 74.6557 33.9276 75.1012 34.3419C75.5118 34.7209 75.7214 35.2058 75.7214 35.7875C75.7214 36.4486 75.4681 36.9687 74.9439 37.383C74.4198 37.7973 73.7384 38 72.9085 38C72 38 71.3012 37.7356 70.777 37.2508C70.2529 36.7395 70.017 36.1577 70.0432 35.5055L70.0607 35.4702H71.4933C71.5108 35.9814 71.6681 36.3517 71.9389 36.5808C72.2097 36.81 72.5416 36.9158 72.9435 36.9158C73.3278 36.9158 73.6423 36.8188 73.8782 36.6161C74.0878 36.4134 74.2101 36.1666 74.2101 35.8492C74.2101 35.5319 74.114 35.2675 73.8957 35.0647C73.686 34.862 73.2929 34.6328 72.7163 34.3684C71.8602 34.051 71.24 33.7073 70.8382 33.3547C70.4276 33.0021 70.2354 32.5261 70.2354 31.962C70.2354 31.3449 70.4713 30.8337 70.9692 30.4018C71.4759 29.9698 72.1136 29.7671 72.926 29.7671C73.7821 29.7671 74.4373 29.9963 74.9439 30.4635C75.4506 30.9306 75.6777 31.4948 75.6603 32.1911L75.6428 32.2264H74.1665C74.1665 31.8474 74.0529 31.5124 73.8345 31.248C73.6248 30.9659 73.3104 30.8337 72.926 30.8337C72.5416 30.8337 72.2446 30.9483 72.035 31.151C71.8253 31.3537 71.703 31.6006 71.703 31.8826C71.7117 32.1823 71.8078 32.4291 71.9825 32.5966Z"
                fill="#fff"
              />
              <path
                fill-rule="evenodd"
                clip-rule="evenodd"
                d="M18.8865 15.8663C18.8691 10.9125 23.001 6.92826 28.1376 6.92826C33.2392 6.94589 37.3275 10.9125 37.3275 15.8487C37.3275 20.7849 33.2392 24.7339 28.1201 24.7339C23.001 24.7339 18.904 20.8025 18.8865 15.8663ZM23.6387 15.8046C23.6213 18.1493 25.613 20.1062 28.0765 20.1238C30.5749 20.1414 32.5753 18.2286 32.5753 15.8222C32.5579 13.4158 30.6011 11.5383 28.1114 11.5383C25.6567 11.5295 23.6562 13.4423 23.6387 15.8046Z"
                fill="#fff"
              />
              <path
                fill-rule="evenodd"
                clip-rule="evenodd"
                d="M70.3923 7.67747C73.6507 9.04374 75.9394 12.1641 75.9394 16.0161C75.9394 17.8936 75.9394 19.7888 76.0006 21.6663V24.7074H70.6106V23.8964C70.3398 24.0286 70.069 24.1256 69.7808 24.2137C69.7458 24.2226 69.7109 24.2402 69.6759 24.249C69.5449 24.2931 69.4139 24.3372 69.2741 24.3636C68.4791 24.5663 67.6493 24.6809 66.7757 24.6809C66.3476 24.6809 65.9196 24.6633 65.5178 24.6016C63.6745 24.4165 61.9885 23.6408 60.652 22.4773C60.4598 22.3274 60.2851 22.1599 60.1104 21.9925C59.9357 21.8426 59.7784 21.6751 59.6474 21.5077C59.595 21.4459 59.5513 21.3842 59.4989 21.3225C59.4465 21.2608 59.4028 21.1991 59.3504 21.1374C59.3329 21.1198 59.3242 21.0934 59.3067 21.0757C59.2805 21.0405 59.2455 20.9964 59.2193 20.9523C58.9311 20.5733 58.6777 20.1678 58.4593 19.7359C58.2497 19.3392 58.075 18.925 57.9352 18.493L57.874 18.3256C57.6819 17.7262 57.5596 17.0827 57.5071 16.4304C57.3936 14.8526 57.7168 13.31 58.4157 11.9438L58.7651 11.3267C58.8262 11.2121 58.8786 11.0976 58.9573 11.0094C59.0184 10.8948 59.097 10.7802 59.1669 10.6921C59.2455 10.5775 59.3242 10.4629 59.4028 10.3748C59.4814 10.2602 59.56 10.172 59.6561 10.0751C59.7085 10.031 59.7522 9.9781 59.7959 9.93402C59.8396 9.88995 59.8832 9.83706 59.9357 9.79299C60.0492 9.66958 60.189 9.54618 60.32 9.41396C60.3899 9.35226 60.4511 9.29055 60.5209 9.22885C60.7306 9.04374 60.9665 8.84982 61.2023 8.68234C62.2681 7.91547 63.5085 7.35133 64.8713 7.10452C64.9412 7.07808 64.9936 7.06926 65.0548 7.06045C65.081 7.06045 65.1072 7.05163 65.1421 7.04282C65.1771 7.02519 65.2382 7.02519 65.2819 7.02519C65.2994 7.02519 65.3081 7.01638 65.3256 7.01638C65.4042 6.99875 65.4741 6.98993 65.5527 6.98993C65.9371 6.93704 66.3476 6.9106 66.7582 6.9106C67.1688 6.9106 67.5706 6.94586 67.9637 7.00756L68.3743 7.06045C68.4442 7.07808 68.5141 7.08689 68.584 7.10452C68.6626 7.12215 68.7499 7.13097 68.8198 7.15741C68.8373 7.15741 68.8548 7.16623 68.881 7.16623C68.8985 7.17504 68.9159 7.17504 68.9421 7.17504C68.9683 7.18385 69.0033 7.19267 69.0382 7.20148C69.0732 7.2103 69.1081 7.21911 69.1343 7.22793C69.1605 7.23674 69.1955 7.24556 69.2304 7.25437C69.2654 7.26319 69.3003 7.272 69.3265 7.28082C69.5187 7.3337 69.7109 7.39541 69.9118 7.46592C70.0428 7.52763 70.2175 7.60696 70.3923 7.67747ZM62.2331 15.8486C62.2331 18.255 64.2074 20.1149 66.7145 20.0885C69.1955 20.0709 71.1523 18.1757 71.0998 15.8046V15.5754C71.0998 15.4784 71.0998 15.3903 71.0824 15.2933C71.0824 15.2669 71.0736 15.2404 71.0736 15.214C71.0649 15.1876 71.0649 15.1699 71.0649 15.1347C71.0649 15.0818 71.0649 15.0377 71.0474 15.0024C70.6631 13.0103 68.8373 11.5471 66.6272 11.5647C64.6267 11.5824 62.9582 12.8429 62.4341 14.6058C62.4253 14.6146 62.4166 14.6234 62.4166 14.6234C62.4166 14.6234 62.4166 14.6322 62.4166 14.641C62.2856 15.0377 62.2331 15.4344 62.2331 15.8486Z"
                fill="#fff"
              />
</svg>