<svg width="52" height="50" viewBox="0 0 52 50" fill="none" xmlns="http://www.w3.org/2000/svg">
<path d="M30.9526 5.26207C31.4314 5.26207 31.8193 4.87044 31.8193 4.38701V0.875058C31.8193 0.391628 31.4314 0 30.9526 0C30.4738 0 30.0859 0.391628 30.0859 0.875058V4.38701C30.0859 4.87044 30.4738 5.26207 30.9526 5.26207Z" fill="url(#paint0_linear)"/>
<path d="M39.7296 8.89908C39.9598 8.89957 40.1804 8.80728 40.3429 8.64272L42.7446 6.21775C43.0831 5.87593 43.0831 5.3217 42.7446 4.98036C42.406 4.63854 41.8576 4.63854 41.519 4.98036L39.1168 7.40533C38.8692 7.65535 38.7952 8.03184 38.9292 8.35901C39.0637 8.68569 39.3795 8.89908 39.7301 8.89908H39.7296Z" fill="url(#paint1_linear)"/>
<path d="M21.5619 8.64272C21.9004 8.98454 22.4493 8.98454 22.7879 8.64272C23.1264 8.3009 23.1264 7.74715 22.7879 7.40533L20.3857 4.98036C20.0476 4.63854 19.4987 4.63854 19.1602 4.98036C18.8216 5.3217 18.8216 5.87593 19.1602 6.21775L21.5619 8.64272Z" fill="url(#paint2_linear)"/>
<path d="M31.825 19.6362C31.825 19.1498 31.4342 18.7552 30.9525 18.7552C30.4709 18.7552 30.0801 19.1498 30.0801 19.6362C30.0801 20.1225 30.4709 20.5171 30.9525 20.5171C31.4342 20.5166 31.8245 20.1225 31.825 19.6362Z" fill="url(#paint3_linear)"/>
<path d="M29.5919 33.6239H32.3128C33.2061 33.6131 33.9359 32.9002 33.9751 31.9988H27.9297C27.9689 32.9002 28.6987 33.6131 29.5919 33.6239Z" fill="url(#paint4_linear)"/>
<path d="M27.9805 28.8735H33.9233V30.2486H27.9805V28.8735Z" fill="url(#paint5_linear)"/>
<path d="M27.3172 24.5242C27.7055 24.6189 27.9797 24.97 27.9802 25.3734V27.1235H30.085V22.1144C28.888 21.6881 28.1693 20.4527 28.3831 19.1894C28.5973 17.9261 29.6821 17.0022 30.9517 17.0022C32.2212 17.0022 33.306 17.9261 33.5202 19.1894C33.734 20.4527 33.0153 21.6881 31.8183 22.1144V27.1235H33.9231V25.3734C33.9236 24.9696 34.1978 24.618 34.5871 24.5237C37.9029 22.8254 39.6314 19.0522 38.7671 15.401C37.9024 11.7504 34.6698 9.17505 30.9521 9.17505C27.234 9.17505 24.0019 11.7504 23.1371 15.401C22.2724 19.0522 24.0014 22.8254 27.3172 24.5237V24.5242Z" fill="url(#paint6_linear)"/>
<path d="M6.49516 50H47.8761C50.1409 49.9961 51.9802 48.1517 52 45.865V17.805C51.986 15.5382 50.1743 13.7022 47.9298 13.6797L40.0122 13.6172C41.8578 18.2435 39.9876 23.5329 35.6571 25.9335V31.9202C35.6571 33.8114 34.1869 35.374 32.3128 35.374H29.5919C27.7179 35.374 26.2476 33.8114 26.2476 31.9202V25.9315C21.8741 23.4968 20.0199 18.1268 21.9462 13.4746L12.1333 13.397V31.26C12.1333 34.3813 9.60153 36.8741 6.50967 36.8741H6.50242C3.17407 36.8741 0.371429 39.4676 0 42.7422V42.9995H0.0169271C0.00677083 43.1245 0 43.2915 0 43.441V43.4561C0.0169271 47.0686 2.91726 49.9907 6.49516 50ZM43.5398 16.1227H46.9765C47.4548 16.1227 47.8432 16.5149 47.8432 16.9978C47.8432 17.4812 47.4548 17.8729 46.9765 17.8729H43.5398C43.0611 17.8729 42.6732 17.4812 42.6732 16.9978C42.6732 16.5149 43.0611 16.1227 43.5398 16.1227ZM14.9282 16.1227H18.3649C18.8437 16.1227 19.2316 16.5149 19.2316 16.9978C19.2316 17.4812 18.8437 17.8729 18.3649 17.8729H14.9282C14.4499 17.8729 14.0616 17.4812 14.0616 16.9978C14.0616 16.5149 14.4499 16.1227 14.9282 16.1227Z" fill="url(#paint7_linear)"/>
<path d="M6.50193 35.124H6.51064C8.64539 35.124 10.4 33.4163 10.4 31.2595V8.58071C10.3956 6.41552 8.66231 4.65857 6.51789 4.64588C6.51451 4.64588 6.49903 4.62195 6.49613 4.62195H6.49516C2.91775 4.63171 0.0178943 7.55281 0 11.1649V38.3156C1.60952 36.3765 3.89275 35.124 6.50193 35.124Z" fill="url(#paint8_linear)"/>
<defs>
<linearGradient id="paint0_linear" x1="28.6962" y1="6.26841" x2="33.0819" y2="5.24103" gradientUnits="userSpaceOnUse">
<stop stop-color="#4C1286"/>
<stop offset="1" stop-color="#844FFC"/>
</linearGradient>
<linearGradient id="paint1_linear" x1="35.5478" y1="9.69755" x2="42.9248" y2="4.50145" gradientUnits="userSpaceOnUse">
<stop stop-color="#4C1286"/>
<stop offset="1" stop-color="#844FFC"/>
</linearGradient>
<linearGradient id="paint2_linear" x1="15.5905" y1="9.69754" x2="22.9677" y2="4.50086" gradientUnits="userSpaceOnUse">
<stop stop-color="#4C1286"/>
<stop offset="1" stop-color="#844FFC"/>
</linearGradient>
<linearGradient id="paint3_linear" x1="28.681" y1="20.854" x2="31.794" y2="18.6614" gradientUnits="userSpaceOnUse">
<stop stop-color="#4C1286"/>
<stop offset="1" stop-color="#844FFC"/>
</linearGradient>
<linearGradient id="paint4_linear" x1="23.0827" y1="33.9347" x2="25.0999" y2="28.5981" gradientUnits="userSpaceOnUse">
<stop stop-color="#4C1286"/>
<stop offset="1" stop-color="#844FFC"/>
</linearGradient>
<linearGradient id="paint5_linear" x1="23.2157" y1="30.5116" x2="24.7341" y2="25.8448" gradientUnits="userSpaceOnUse">
<stop stop-color="#4C1286"/>
<stop offset="1" stop-color="#844FFC"/>
</linearGradient>
<linearGradient id="paint6_linear" x1="10.0299" y1="30.556" x2="40.5499" y2="11.1204" gradientUnits="userSpaceOnUse">
<stop stop-color="#4C1286"/>
<stop offset="1" stop-color="#844FFC"/>
</linearGradient>
<linearGradient id="paint7_linear" x1="-41.692" y1="57.0001" x2="26.9908" y2="-12.3911" gradientUnits="userSpaceOnUse">
<stop stop-color="#4C1286"/>
<stop offset="1" stop-color="#844FFC"/>
</linearGradient>
<linearGradient id="paint8_linear" x1="-8.33841" y1="44.7593" x2="18.1435" y2="38.9463" gradientUnits="userSpaceOnUse">
<stop stop-color="#4C1286"/>
<stop offset="1" stop-color="#844FFC"/>
</linearGradient>
</defs>
</svg>
