<svg width="53" height="50" viewBox="0 0 53 50" fill="none" xmlns="http://www.w3.org/2000/svg">
<path d="M44.6197 33.106C44.6197 33.5623 44.9912 33.9323 45.4496 33.9323C45.9084 33.9323 46.2799 33.5623 46.2799 33.106V30.3284C46.2659 29.8555 45.8872 29.4741 45.4122 29.4549H27.0697V25.141L29.3363 27.3969C29.6608 27.72 30.1867 27.7203 30.5108 27.3976C30.8353 27.0746 30.8353 26.5514 30.5112 26.2283L26.9536 22.6869C26.6295 22.3638 26.1044 22.3638 25.7799 22.6869L22.2224 26.2283C21.9135 26.5532 21.9209 27.0635 22.2383 27.3807C22.5561 27.6967 23.0683 27.7041 23.3954 27.3969L25.4094 25.391V29.4549H7.07071C6.59528 29.4737 6.21479 29.8547 6.19922 30.3284V33.1053C6.19922 33.562 6.57044 33.9319 7.02917 33.9319C7.48791 33.9319 7.85913 33.562 7.85913 33.1053V31.1075H25.4094V32.6855C25.4094 33.1418 25.781 33.5118 26.2394 33.5118C26.6981 33.5118 27.0697 33.1418 27.0697 32.6855V31.1075H44.6197V33.106Z" fill="url(#paint0_linear)"/>
<path d="M6.57421 36.2949H6.81137C8.18791 36.2949 9.30355 37.1835 9.30355 38.2798V39.5085C9.30355 40.6046 8.18791 41.4934 6.81137 41.4934H6.57421C5.19767 41.4934 4.08203 40.6046 4.08203 39.5085V38.2798C4.08203 37.1835 5.19767 36.2949 6.57421 36.2949Z" fill="url(#paint1_linear)"/>
<path d="M13.4579 49.9985V47.197C13.4597 47.1749 13.4627 47.1531 13.4672 47.1313C13.5448 46.5325 13.2933 45.9357 12.7753 45.4912C12.257 45.0464 11.5217 44.7955 10.7533 44.8016H10.1974L7.28097 46.7718C7.05469 46.9211 6.74369 46.9645 6.46576 46.8856C6.3606 46.8594 6.26325 46.8172 6.18002 46.7607L3.37842 44.8016H2.72038C1.95272 44.7958 1.21777 45.0467 0.701289 45.4918C0.184441 45.9369 -0.0652508 46.5331 0.0146359 47.1315C0.0172368 47.1534 0.0320994 47.1752 0.0320994 47.197V50L13.4579 49.9985Z" fill="url(#paint2_linear)"/>
<path d="M26.2264 36.2949H26.4639C27.84 36.2949 28.9559 37.1835 28.9559 38.2798V39.5085C28.9559 40.6046 27.84 41.4934 26.4639 41.4934H26.2264C24.8503 41.4934 23.7344 40.6046 23.7344 39.5085V38.2798C23.7344 37.1835 24.8503 36.2949 26.2264 36.2949Z" fill="url(#paint3_linear)"/>
<path d="M19.7554 50L33.0846 49.9985V47.1971C33.0846 47.175 33.1137 47.1531 33.1167 47.1313C33.1986 46.5346 32.9533 45.9384 32.4434 45.4933C31.9329 45.0483 31.2058 44.7968 30.4448 44.8017H29.8929L26.9982 46.7718C26.7732 46.9214 26.4633 46.9648 26.187 46.8847C26.0834 46.8591 25.9875 46.8169 25.9056 46.7607L23.1223 44.8017H22.4694C21.7017 44.7936 20.9669 45.0453 20.4511 45.4942C19.9325 45.9358 19.6809 46.5325 19.7606 47.1316C19.7602 47.1534 19.7587 47.1753 19.7554 47.1971V50Z" fill="url(#paint4_linear)"/>
<path d="M45.5936 36.2949H45.8311C47.2072 36.2949 48.3231 37.1835 48.3231 38.2798V39.5085C48.3231 40.6046 47.2072 41.4934 45.8311 41.4934H45.5936C44.2175 41.4934 43.1016 40.6046 43.1016 39.5085V38.2798C43.1016 37.1835 44.2175 36.2949 45.5936 36.2949Z" fill="url(#paint5_linear)"/>
<path d="M52.4678 49.9985V47.197C52.4678 47.1749 52.4827 47.1531 52.486 47.1313C52.5655 46.5331 52.3159 45.9369 51.799 45.4918C51.2825 45.0473 50.5483 44.7958 49.7807 44.8016H49.2252L46.3087 46.7718C46.0821 46.9214 45.7715 46.9645 45.4928 46.8853C45.388 46.8594 45.291 46.8172 45.2078 46.7607L42.4062 44.8016H41.7478C40.9794 44.7955 40.2437 45.0464 39.7253 45.4912C39.2074 45.9357 38.9554 46.5325 39.0335 47.1315C39.0376 47.1534 39.0409 47.1752 39.042 47.197V50L52.4678 49.9985Z" fill="url(#paint6_linear)"/>
<path d="M34.4605 2.63986L26.2389 0L18.0176 2.63986L26.2389 5.27934L34.4605 2.63986Z" fill="url(#paint7_linear)"/>
<path d="M16.1602 16.8852L25.2908 19.8226V6.7116L16.1602 3.7749V16.8852Z" fill="url(#paint8_linear)"/>
<path d="M36.3191 3.7749L26.9512 6.78766V19.8987L36.3191 16.8852V3.7749Z" fill="url(#paint9_linear)"/>
<defs>
<linearGradient id="paint0_linear" x1="-25.9363" y1="36.1293" x2="-10.9884" y2="-0.960367" gradientUnits="userSpaceOnUse">
<stop stop-color="#4C1286"/>
<stop offset="1" stop-color="#844FFC"/>
</linearGradient>
<linearGradient id="paint1_linear" x1="-0.104426" y1="42.4876" x2="9.12348" y2="35.896" gradientUnits="userSpaceOnUse">
<stop stop-color="#4C1286"/>
<stop offset="1" stop-color="#844FFC"/>
</linearGradient>
<linearGradient id="paint2_linear" x1="-10.8087" y1="50.9942" x2="-2.63332" y2="35.9169" gradientUnits="userSpaceOnUse">
<stop stop-color="#4C1286"/>
<stop offset="1" stop-color="#844FFC"/>
</linearGradient>
<linearGradient id="paint3_linear" x1="19.5479" y1="42.4876" x2="28.7758" y2="35.896" gradientUnits="userSpaceOnUse">
<stop stop-color="#4C1286"/>
<stop offset="1" stop-color="#844FFC"/>
</linearGradient>
<linearGradient id="paint4_linear" x1="9.01354" y1="50.9942" x2="17.2203" y2="35.9655" gradientUnits="userSpaceOnUse">
<stop stop-color="#4C1286"/>
<stop offset="1" stop-color="#844FFC"/>
</linearGradient>
<linearGradient id="paint5_linear" x1="38.9151" y1="42.4876" x2="48.143" y2="35.896" gradientUnits="userSpaceOnUse">
<stop stop-color="#4C1286"/>
<stop offset="1" stop-color="#844FFC"/>
</linearGradient>
<linearGradient id="paint6_linear" x1="28.2109" y1="50.9942" x2="36.3862" y2="35.9169" gradientUnits="userSpaceOnUse">
<stop stop-color="#4C1286"/>
<stop offset="1" stop-color="#844FFC"/>
</linearGradient>
<linearGradient id="paint7_linear" x1="4.8341" y1="6.28899" x2="12.2648" y2="-10.1699" gradientUnits="userSpaceOnUse">
<stop stop-color="#4C1286"/>
<stop offset="1" stop-color="#844FFC"/>
</linearGradient>
<linearGradient id="paint8_linear" x1="8.83951" y1="22.8917" x2="29.7808" y2="14.4183" gradientUnits="userSpaceOnUse">
<stop stop-color="#4C1286"/>
<stop offset="1" stop-color="#844FFC"/>
</linearGradient>
<linearGradient id="paint9_linear" x1="19.4402" y1="22.9823" x2="40.7974" y2="14.1578" gradientUnits="userSpaceOnUse">
<stop stop-color="#4C1286"/>
<stop offset="1" stop-color="#844FFC"/>
</linearGradient>
</defs>
</svg>
