<svg width="76" height="38" viewBox="0 0 76 38" fill="none" xmlns="http://www.w3.org/2000/svg">
<path fill-rule="evenodd" clip-rule="evenodd" d="M46.2286 7.02593C45.687 7.11365 45.1454 7.25399 44.595 7.39433C44.2893 7.47328 43.9835 7.55222 43.669 7.62239V0H38.4102V15.7097C38.4276 21.2795 43.5467 25.4021 49.2337 24.4723C54.2567 23.6478 57.5763 19.113 56.7551 14.2361C55.9689 9.5258 51.173 6.2365 46.2286 7.02593ZM47.6263 19.9901C45.1279 19.9901 43.1886 18.1218 43.206 15.7272C43.206 13.3765 45.1628 11.5257 47.6263 11.5081C50.1247 11.5081 52.1077 13.3765 52.1077 15.7535C52.1077 18.1043 50.1072 19.9901 47.6263 19.9901Z" fill="#783EB3"/>
<path fill-rule="evenodd" clip-rule="evenodd" d="M9.26855 6.89431C4.13197 6.87677 0 10.8327 0 15.771C0 20.648 4.08829 24.6127 9.13751 24.6127C14.3352 24.6302 18.4235 20.7444 18.4497 15.7973C18.4585 10.8766 14.3527 6.91186 9.26855 6.89431ZM9.13751 20.0252C6.67405 19.9726 4.71726 18.0428 4.77841 15.6921C4.83956 13.2975 6.81382 11.473 9.29475 11.4906C11.7582 11.5256 13.7587 13.4554 13.715 15.7886C13.6539 18.2007 11.6184 20.069 9.13751 20.0252Z" fill="#783EB3"/>
<path fill-rule="evenodd" clip-rule="evenodd" d="M3.5127 29.5949C3.10212 29.5949 2.7527 29.6738 2.46442 29.8405C2.17614 30.0071 1.90534 30.2527 1.68694 30.5685V26.253H0.158203V37.6295H1.49476L1.60832 36.691C1.81798 37.0418 2.08879 37.305 2.42074 37.4979C2.7527 37.6821 3.11959 37.7786 3.54764 37.7786C4.40374 37.7786 5.05891 37.4628 5.5219 36.8488C5.98489 36.2348 6.22076 35.3928 6.22076 34.349V33.2876C6.22076 32.1649 5.98489 31.2878 5.5219 30.6124C5.02397 29.9282 4.36006 29.5949 3.5127 29.5949ZM4.67454 34.3402C4.67454 35.0507 4.56098 35.6121 4.30765 36.0243C4.05431 36.4366 3.66994 36.6383 3.12833 36.6383C2.7789 36.6383 2.49063 36.5419 2.23729 36.3752C2.00143 36.191 1.80924 35.9454 1.67821 35.6296V31.8404C1.81798 31.507 2.01016 31.2439 2.23729 31.0597C2.47316 30.858 2.76143 30.7615 3.11086 30.7615C3.65247 30.7615 4.04558 30.9895 4.29017 31.4544C4.54351 31.9193 4.65707 32.5158 4.65707 33.2876V34.349H4.67454V34.3402Z" fill="#783EB3"/>
<path d="M15.304 35.6471C15.1468 35.9629 14.9546 36.2085 14.7013 36.3752C14.4479 36.5418 14.1422 36.6383 13.7491 36.6383C13.3385 36.6383 13.0502 36.4716 12.858 36.1296C12.6659 35.7962 12.5698 35.2173 12.5698 34.4104V29.7352H11.041V34.384C11.041 35.5419 11.2507 36.4015 11.6612 36.9453C12.0718 37.4891 12.6484 37.7698 13.3909 37.7698C13.8364 37.7698 14.2208 37.6558 14.5528 37.454C14.8847 37.2523 15.173 36.9453 15.3826 36.5594L15.4787 37.6207H16.859V29.7352H15.304V35.6471Z" fill="#783EB3"/>
<path d="M23.5594 32.4369C23.7342 32.6211 24.1447 32.8491 24.7388 33.1298C25.5949 33.4281 26.2326 33.7614 26.6781 34.1736C27.0887 34.5508 27.2983 35.0332 27.2983 35.6122C27.2983 36.27 27.045 36.7875 26.5208 37.1998C25.9967 37.6121 25.3153 37.8138 24.4854 37.8138C23.5769 37.8138 22.8781 37.5507 22.3539 37.0682C21.8298 36.5595 21.5939 35.9806 21.6201 35.3315L21.6376 35.2964H23.0702C23.0877 35.8051 23.245 36.1735 23.5158 36.4016C23.7866 36.6297 24.1185 36.7349 24.5204 36.7349C24.9047 36.7349 25.2192 36.6384 25.4551 36.4367C25.6647 36.2349 25.787 35.9893 25.787 35.6736C25.787 35.3578 25.6909 35.0946 25.4726 34.8929C25.2629 34.6912 24.8698 34.4631 24.2932 34.2C23.4371 33.8842 22.8169 33.5421 22.4151 33.1912C22.0132 32.8404 21.8123 32.3667 21.8123 31.8053C21.8123 31.1913 22.0482 30.6826 22.5461 30.2528C23.044 29.823 23.6905 29.6212 24.5029 29.6212C25.359 29.6212 26.0142 29.8493 26.5208 30.3142C27.0275 30.7791 27.2546 31.3405 27.2372 32.0334L27.2197 32.0685H25.7434C25.7434 31.6913 25.6298 31.358 25.4114 31.0949C25.2017 30.8142 24.8873 30.6826 24.5029 30.6826C24.1185 30.6826 23.8215 30.7966 23.6119 30.9984C23.4022 31.2001 23.2799 31.4457 23.2799 31.7264C23.2886 32.0246 23.3673 32.2702 23.5594 32.4369Z" fill="#783EB3"/>
<path d="M33.7026 26.253H32.1738V27.6739H33.7026V26.253Z" fill="#783EB3"/>
<path d="M32.1738 29.7439H33.7026V37.6295H32.1738V29.7439Z" fill="#783EB3"/>
<path d="M42.4726 29.5949C42.027 29.5949 41.6427 29.7089 41.2932 29.9457C40.9438 30.1738 40.6555 30.5071 40.4372 30.9193L40.3585 29.7615H38.9434V37.6295H40.4721V31.7789C40.6293 31.4632 40.8215 31.2 41.0574 31.0158C41.2932 30.8316 41.5815 30.7351 41.8873 30.7351C42.3328 30.7351 42.6647 30.8843 42.8744 31.1825C43.0841 31.4807 43.2064 32.007 43.2064 32.735V37.6295H44.7351V32.735C44.7351 31.6474 44.5429 30.8667 44.1323 30.358C43.7305 29.8405 43.1889 29.5949 42.4726 29.5949Z" fill="#783EB3"/>
<path fill-rule="evenodd" clip-rule="evenodd" d="M50.4401 30.6036C51.0254 29.9282 51.7417 29.5949 52.6327 29.5949C53.5675 29.5949 54.2838 29.8931 54.7642 30.5071C55.2709 31.1211 55.5242 31.9456 55.5242 32.9719V33.9981H51.1215V34.3139C51.1215 34.9893 51.2787 35.5507 51.5845 35.998C51.8989 36.4454 52.3445 36.6734 52.9035 36.6734C53.3316 36.6734 53.681 36.6208 53.9868 36.4892C54.275 36.3576 54.5721 36.1734 54.8429 35.9278L55.3321 36.8401C55.0787 37.1208 54.7293 37.3488 54.3013 37.533C53.8732 37.6997 53.3665 37.7962 52.8075 37.7962C51.8203 37.7962 51.0428 37.4804 50.4576 36.8225C49.8723 36.1647 49.584 35.3314 49.584 34.3227V33.1648C49.584 32.121 49.8635 31.279 50.4401 30.6036ZM51.1215 32.9368H54.013V32.6385C54.013 32.0772 53.8994 31.6123 53.6635 31.2527C53.4277 30.893 53.0783 30.7088 52.6327 30.7088C52.1872 30.7088 51.8378 30.9369 51.567 31.3404C51.2962 31.7614 51.1564 32.3052 51.1215 32.9368Z" fill="#783EB3"/>
<path d="M63.0454 33.1298C62.4426 32.8491 62.0408 32.6211 61.8661 32.4369C61.6914 32.2702 61.5953 32.0246 61.5953 31.7264C61.5953 31.4457 61.7088 31.2001 61.9272 30.9984C62.1369 30.7966 62.4339 30.6826 62.8183 30.6826C63.2026 30.6826 63.5171 30.8142 63.7268 31.0949C63.9364 31.358 64.0587 31.6913 64.0587 32.0685H65.5351L65.5525 32.0334C65.57 31.3405 65.3429 30.7791 64.8362 30.3142C64.3295 29.8493 63.6744 29.6212 62.8183 29.6212C62.0059 29.6212 61.3594 29.823 60.8615 30.2528C60.3635 30.6826 60.1277 31.1826 60.1277 31.8053C60.1277 32.3667 60.3199 32.8316 60.7304 33.1912C61.141 33.5421 61.7613 33.8842 62.6086 34.2C63.1939 34.4631 63.5783 34.6824 63.7879 34.8929C63.9976 35.0946 64.1024 35.3578 64.1024 35.6736C64.1024 35.9893 63.9888 36.2349 63.7705 36.4367C63.5346 36.6384 63.2288 36.7349 62.8357 36.7349C62.4252 36.7349 62.1019 36.6209 61.8311 36.4016C61.5603 36.1823 61.4031 35.8051 61.3856 35.2964H59.953L59.9355 35.3315C59.918 35.9893 60.1452 36.5682 60.6693 37.0682C61.1934 37.5507 61.8923 37.8138 62.8008 37.8138C63.6307 37.8138 64.3121 37.6121 64.8362 37.1998C65.3603 36.7875 65.6137 36.27 65.6137 35.6122C65.6137 35.0332 65.404 34.5508 64.9934 34.1736C64.5392 33.7614 63.9015 33.4281 63.0454 33.1298Z" fill="#783EB3"/>
<path d="M71.9823 32.4369C72.157 32.6211 72.5676 32.8491 73.1616 33.1298C74.0177 33.4281 74.6554 33.7614 75.1009 34.1736C75.5115 34.5508 75.7212 35.0332 75.7212 35.6122C75.7212 36.27 75.4678 36.7875 74.9437 37.1998C74.4196 37.6121 73.7382 37.8138 72.9083 37.8138C71.9998 37.8138 71.3009 37.5507 70.7768 37.0682C70.2526 36.5595 70.0168 35.9806 70.043 35.3315L70.0604 35.2964H71.4931C71.5106 35.8051 71.6678 36.1735 71.9386 36.4016C72.2094 36.6297 72.5414 36.7349 72.9432 36.7349C73.3276 36.7349 73.6421 36.6384 73.8779 36.4367C74.0876 36.2349 74.2099 35.9893 74.2099 35.6736C74.2099 35.3578 74.1138 35.0946 73.8954 34.8929C73.6858 34.6912 73.2927 34.4631 72.7161 34.2C71.86 33.8842 71.2398 33.5421 70.8379 33.1912C70.4273 32.8404 70.2352 32.3667 70.2352 31.8053C70.2352 31.1913 70.471 30.6826 70.969 30.2528C71.4756 29.823 72.1133 29.6212 72.9258 29.6212C73.7819 29.6212 74.437 29.8493 74.9437 30.3142C75.4504 30.7791 75.6775 31.3405 75.66 32.0334L75.6426 32.0685H74.1662C74.1662 31.6913 74.0527 31.358 73.8343 31.0949C73.6246 30.8142 73.3101 30.6826 72.9258 30.6826C72.5414 30.6826 72.2444 30.7966 72.0347 30.9984C71.8251 31.2001 71.7028 31.4457 71.7028 31.7264C71.7115 32.0246 71.8076 32.2702 71.9823 32.4369Z" fill="#783EB3"/>
<path fill-rule="evenodd" clip-rule="evenodd" d="M18.8868 15.7886C18.8693 10.859 23.0013 6.89431 28.1378 6.89431C33.2395 6.91185 37.3278 10.859 37.3278 15.771C37.3278 20.683 33.2395 24.6126 28.1204 24.6126C23.0013 24.6126 18.9042 20.7006 18.8868 15.7886ZM23.639 15.7272C23.6215 18.0604 25.6132 20.0076 28.0767 20.0252C30.5751 20.0427 32.5756 18.1393 32.5756 15.7447C32.5581 13.3501 30.6013 11.4818 28.1116 11.4818C25.6569 11.473 23.6564 13.3764 23.639 15.7272Z" fill="#783EB3"/>
<path fill-rule="evenodd" clip-rule="evenodd" d="M70.3927 7.63985C73.6511 8.99943 75.9399 12.1045 75.9399 15.9376C75.9399 17.806 75.9399 19.6918 76.001 21.5601V24.5863H70.6111V23.7793C70.3403 23.9109 70.0695 24.0074 69.7812 24.0951C69.7463 24.1039 69.7114 24.1214 69.6764 24.1302C69.5454 24.174 69.4143 24.2179 69.2746 24.2442C68.4796 24.446 67.6497 24.56 66.7762 24.56C66.3481 24.56 65.9201 24.5424 65.5182 24.481C63.675 24.2968 61.989 23.525 60.6525 22.3671C60.4603 22.218 60.2856 22.0514 60.1109 21.8847C59.9361 21.7356 59.7789 21.5689 59.6479 21.4023C59.5955 21.3409 59.5518 21.2795 59.4994 21.2181C59.4469 21.1567 59.4033 21.0953 59.3509 21.0339C59.3334 21.0163 59.3246 20.99 59.3072 20.9725C59.281 20.9374 59.246 20.8935 59.2198 20.8497C58.9315 20.4725 58.6782 20.069 58.4598 19.6392C58.2502 19.2445 58.0754 18.8322 57.9357 18.4024L57.8745 18.2358C57.6823 17.6393 57.56 16.999 57.5076 16.3499C57.3941 14.7798 57.7173 13.2448 58.4161 11.8852L58.7656 11.2712C58.8267 11.1572 58.8791 11.0432 58.9577 10.9555C59.0189 10.8414 59.0975 10.7274 59.1674 10.6397C59.246 10.5257 59.3246 10.4116 59.4033 10.3239C59.4819 10.2099 59.5605 10.1222 59.6566 10.0257C59.709 9.98183 59.7527 9.9292 59.7964 9.88535C59.8401 9.84149 59.8837 9.78886 59.9361 9.745C60.0497 9.6222 60.1895 9.4994 60.3205 9.36783C60.3904 9.30643 60.4515 9.24503 60.5214 9.18363C60.7311 8.99943 60.967 8.80646 61.2028 8.6398C62.2686 7.87668 63.509 7.31531 64.8718 7.06971C64.9417 7.0434 64.9941 7.03462 65.0552 7.02585C65.0815 7.02585 65.1077 7.01708 65.1426 7.00831C65.1775 6.99077 65.2387 6.99077 65.2824 6.99077C65.2998 6.99077 65.3086 6.98199 65.3261 6.98199C65.4047 6.96445 65.4746 6.95568 65.5532 6.95568C65.9376 6.90305 66.3481 6.87674 66.7587 6.87674C67.1693 6.87674 67.5711 6.91182 67.9642 6.97322L68.3748 7.02585C68.4447 7.0434 68.5146 7.05217 68.5845 7.06971C68.6631 7.08725 68.7504 7.09602 68.8203 7.12234C68.8378 7.12234 68.8553 7.13111 68.8815 7.13111C68.8989 7.13988 68.9164 7.13988 68.9426 7.13988C68.9688 7.14865 69.0038 7.15742 69.0387 7.1662C69.0737 7.17497 69.1086 7.18374 69.1348 7.19251C69.161 7.20128 69.196 7.21005 69.2309 7.21882C69.2658 7.2276 69.3008 7.23637 69.327 7.24514C69.5192 7.29777 69.7114 7.35917 69.9123 7.42934C70.0433 7.49074 70.218 7.56968 70.3927 7.63985ZM62.2336 15.771C62.2336 18.1656 64.2079 20.0164 66.715 19.9901C69.196 19.9725 71.1527 18.0867 71.1003 15.7271V15.4991C71.1003 15.4026 71.1003 15.3149 71.0829 15.2184C71.0829 15.1921 71.0741 15.1658 71.0741 15.1394C71.0654 15.1131 71.0654 15.0956 71.0654 15.0605C71.0654 15.0079 71.0654 14.964 71.0479 14.9289C70.6635 12.9466 68.8378 11.4905 66.6277 11.5081C64.6272 11.5256 62.9587 12.7799 62.4345 14.5342C62.4258 14.543 62.4171 14.5518 62.4171 14.5518C62.4171 14.5518 62.4171 14.5605 62.4171 14.5693C62.286 14.964 62.2336 15.3587 62.2336 15.771Z" fill="#783EB3"/>
</svg>
