<svg width="50" height="50" viewBox="0 0 50 50" fill="none" xmlns="http://www.w3.org/2000/svg">
<path d="M48.6598 42.1938L41.3356 34.8697C39.8931 33.4271 37.7604 33.168 36.0751 34.0036L33.5804 31.5089C36.4476 28.1681 38.1828 23.8288 38.1828 19.0914C38.1828 8.56436 29.6184 0 19.0914 0C8.56436 0 0 8.56436 0 19.0914C0 29.6184 8.56436 38.1828 19.0914 38.1828C23.8288 38.1828 28.1681 36.4476 31.5089 33.5804L34.0051 36.0767C33.162 37.7856 33.4493 39.9152 34.8697 41.3357L42.1939 48.6598C43.9807 50.4466 46.8727 50.4468 48.6599 48.6598C50.4424 46.8771 50.4424 43.9765 48.6598 42.1938ZM29.3939 24.0229C29.3939 26.9845 26.9845 29.3939 24.0229 29.3939H14.2575C11.2959 29.3939 8.88652 26.9845 8.88652 24.0229V13.281C8.88652 12.472 9.54237 11.8161 10.3513 11.8161H13.281C13.281 8.58536 15.9094 5.9569 19.1402 5.9569C22.371 5.9569 24.9994 8.58536 24.9994 11.8161H27.9291C28.738 11.8161 29.3939 12.472 29.3939 13.281V24.0229Z" fill="url(#paint0_linear)"/>
<path d="M23.5349 16.2107C22.7259 16.2107 22.0701 15.5548 22.0701 14.7458H16.2108C16.2108 15.5548 15.555 16.2107 14.746 16.2107C13.9371 16.2107 13.2812 15.5548 13.2812 14.7458H11.8164V24.023C11.8164 25.3692 12.9116 26.4643 14.2578 26.4643H24.0232C25.3693 26.4643 26.4645 25.3692 26.4645 24.023V14.7458H24.9997C24.9997 15.5548 24.3439 16.2107 23.5349 16.2107Z" fill="url(#paint1_linear)"/>
<path d="M19.1406 8.88647C17.5252 8.88647 16.2109 10.2007 16.2109 11.8161H22.0702C22.0702 10.2007 20.756 8.88647 19.1406 8.88647Z" fill="url(#paint2_linear)"/>
<defs>
<linearGradient id="paint0_linear" x1="-40.0859" y1="59.5622" x2="48.54" y2="-3.46129" gradientUnits="userSpaceOnUse">
<stop stop-color="#4C1286"/>
<stop offset="1" stop-color="#844FFC"/>
</linearGradient>
<linearGradient id="paint1_linear" x1="0.0719876" y1="28.7054" x2="21.9106" y2="9.29193" gradientUnits="userSpaceOnUse">
<stop stop-color="#4C1286"/>
<stop offset="1" stop-color="#844FFC"/>
</linearGradient>
<linearGradient id="paint2_linear" x1="11.5132" y1="12.3764" x2="16.6863" y2="5.01845" gradientUnits="userSpaceOnUse">
<stop stop-color="#4C1286"/>
<stop offset="1" stop-color="#844FFC"/>
</linearGradient>
</defs>
</svg>
