<svg width="60" height="60" viewBox="0 0 60 60" fill="none" xmlns="http://www.w3.org/2000/svg">
<rect width="60" height="60" rx="10" fill="#EBE5F1"/>
<path d="M41.4688 24.125H37.25V21.5938C37.25 20.2227 36.0898 19.0625 34.7188 19.0625H26.2812C24.8574 19.0625 23.75 20.2227 23.75 21.5938V24.125H19.5312C18.1074 24.125 17 25.2852 17 26.6562V40.1562C17 41.5801 18.1074 42.6875 19.5312 42.6875H41.4688C42.8398 42.6875 44 41.5801 44 40.1562V26.6562C44 25.2852 42.8398 24.125 41.4688 24.125ZM26.2812 21.5938H34.7188V24.125H26.2812V21.5938ZM19.5312 40.1562V26.6562H23.75V40.1562H19.5312ZM26.2812 40.1562V26.6562H34.7188V40.1562H26.2812ZM41.4688 40.1562H37.25V26.6562H41.4688V40.1562Z" fill="#390073"/>
</svg>
