<svg width="127" height="50" viewBox="0 0 127 50" fill="none" xmlns="http://www.w3.org/2000/svg">
<path fill-rule="evenodd" clip-rule="evenodd" d="M0 0V29.9806C2.0709 29.9806 4.38061 28.0928 4.38061 26.0036V24.4329H6.85449C8.51121 24.3508 10.4217 22.0079 10.4217 20.8364V14.1695C10.4217 12.9234 9.01493 12.0057 8.35075 11.502C9.0112 10.9163 10.4217 9.91643 10.4217 8.66662V0H0ZM6.12314 9.91643C6.12314 10.4164 5.70896 11.2483 5.21269 11.752C5.1306 11.8341 4.88433 12.0877 4.88433 12.0877C4.84328 12.1213 4.79851 12.1698 4.71643 12.1698H6.12314V20.8364H4.38807V3.66736H6.12314V9.91643ZM22.6605 19.4187V5.9991H12.1605V24.3359H17.3694C18.1978 24.2576 19.1903 23.9181 20.0149 23.3398C20.5112 23.004 20.9254 22.672 21.3433 22.2541C22.0821 21.4222 22.6605 20.4186 22.6605 19.4187ZM18.5261 20.9222H16.2948V9.50231H18.5261V20.9222ZM11.0858 0V3.66736H23.6717V26.0036V29.9806C25.0746 29.9806 28.1232 28.6039 28.1232 25.7536V3.66736C29.0336 3.66736 29.7761 0.99612 29.7761 0H11.0858Z" fill="white" fill-opacity="0.7"/>
<path fill-rule="evenodd" clip-rule="evenodd" d="M49.4596 26.5147V23.7203H58.2842C59.5566 23.7203 60.7245 21.5154 61.3924 20.3328H49.4558V17.96H56.0939C57.982 17.96 61.0566 15.3335 61.1387 13.9755V0H32.7245V17.96H44.1536V20.3328H32.7245V23.7203H44.1536V26.5147H32.3887V29.9881H59.0342C60.135 29.9881 61.1387 27.7869 61.9782 26.5147H49.4596ZM49.4596 10.6738H51.7282C52.064 10.6738 52.3999 10.5917 52.7357 10.3343C53.1573 10.0806 55.1723 7.53619 55.426 7.28623H49.4596V3.38755H55.9335V14.5687H49.4596V10.6738ZM44.1611 14.5725H37.8588V10.6738H44.1611V14.5725ZM44.1611 7.28623H37.8588V3.38755H40.967H44.1611V7.28623Z" fill="white" fill-opacity="0.7"/>
<path fill-rule="evenodd" clip-rule="evenodd" d="M70.4404 26.108V17.6615H88.6046C90.2501 17.6615 93.2016 14.9194 93.28 13.5428V0H65.0859V25.8058C65.0859 27.8652 66.3173 30.003 68.6121 30.003H90.1345C91.7576 30.003 93.7091 27.3914 94.0486 26.1043H70.4404V26.108ZM87.9628 13.8039H81.9665V3.85763H87.9628V13.8039ZM70.4815 3.85763H76.78V13.8039H70.4815V3.85763Z" fill="white" fill-opacity="0.7"/>
<path fill-rule="evenodd" clip-rule="evenodd" d="M102.94 26.108V17.6615H121.101C122.746 17.6615 125.698 14.9194 125.78 13.5428V0H97.582V25.8058C97.582 27.8652 98.8171 30.003 101.112 30.003H122.631C124.254 30.003 126.205 27.3914 126.545 26.1043H102.94V26.108ZM120.463 13.8039H114.466V3.85763H120.463V13.8039ZM102.981 3.85763H109.276V13.8039H102.981V3.85763Z" fill="white" fill-opacity="0.7"/>
<path d="M46.1339 49.6866H37.3652V47.3474H40.16V40.2589H37.3652V38.0764C37.7757 38.0764 38.1824 38.0503 38.5854 37.9943C38.9884 37.9421 39.313 37.8525 39.5555 37.7331C39.8391 37.5876 40.0593 37.3936 40.216 37.1549C40.3727 36.9124 40.4622 36.6102 40.4884 36.252H43.3951V47.3436H46.1302V49.6866H46.1339Z" fill="white" fill-opacity="0.7"/>
<path d="M58.5518 45.1276C58.5518 46.5378 58.1077 47.6906 57.2234 48.6009C56.3391 49.5112 55.1227 49.9627 53.5779 49.9627C52.8055 49.9627 52.1152 49.8507 51.507 49.6269C50.9025 49.403 50.3876 49.071 49.9659 48.6345C49.4622 48.1196 49.0742 47.4518 48.8055 46.6385C48.5406 45.8252 48.4062 44.8477 48.4062 43.7173C48.4062 42.5421 48.5294 41.4975 48.7831 40.5872C49.0331 39.6769 49.4398 38.8673 50.007 38.1659C50.548 37.5018 51.257 36.9795 52.1301 36.6064C53.0033 36.2334 54.0406 36.0431 55.2346 36.0431C55.6674 36.0431 56.1077 36.0692 56.5443 36.1289C56.9809 36.1849 57.2794 36.2334 57.4398 36.2669V38.8971H57.1973C57.0443 38.8188 56.7869 38.733 56.4286 38.636C56.0742 38.539 55.6637 38.4905 55.2048 38.4905C54.1637 38.4905 53.3577 38.7666 52.7943 39.3187C52.2309 39.8709 51.8801 40.6618 51.7495 41.6952C52.1824 41.4154 52.6264 41.1878 53.0742 41.02C53.5219 40.8521 54.0294 40.77 54.5928 40.77C55.0704 40.77 55.5182 40.8334 55.9361 40.964C56.354 41.0946 56.7271 41.2811 57.0555 41.5273C57.5145 41.8818 57.8764 42.3444 58.1488 42.9189C58.4174 43.4897 58.5518 44.2284 58.5518 45.1276ZM54.6749 47.1459C54.8465 46.9295 54.9809 46.6945 55.0704 46.4408C55.1637 46.1871 55.2085 45.7991 55.2085 45.288C55.2085 44.8589 55.1525 44.5008 55.048 44.221C54.9398 43.9374 54.7906 43.7136 54.5928 43.5457C54.3988 43.3815 54.1749 43.2659 53.9249 43.2025C53.6749 43.139 53.41 43.1055 53.1339 43.1055C52.9025 43.1055 52.6637 43.1353 52.4174 43.195C52.1712 43.2547 51.9436 43.3293 51.7271 43.4189C51.7271 43.4785 51.7271 43.5755 51.7197 43.7136C51.7122 43.8516 51.7085 44.027 51.7085 44.2359C51.7085 45.0044 51.7757 45.62 51.91 46.0864C52.0443 46.5527 52.2122 46.9071 52.4137 47.1459C52.5704 47.3362 52.7421 47.4742 52.9436 47.5563C53.1413 47.6421 53.3503 47.6831 53.5704 47.6831C53.7495 47.6831 53.9398 47.6384 54.1488 47.5488C54.3578 47.4593 54.5331 47.325 54.6749 47.1459Z" fill="white" fill-opacity="0.7"/>
<path d="M70.5073 45.9595C70.5073 46.5341 70.3916 47.0713 70.1566 47.5675C69.9215 48.06 69.5782 48.489 69.1267 48.8472C68.6752 49.2053 68.123 49.4889 67.47 49.6941C66.817 49.8993 66.0745 50 65.2349 50C64.3394 50 63.5595 49.8955 62.8879 49.6903C62.2162 49.4814 61.664 49.2053 61.2349 48.8509C60.8133 48.4965 60.4998 48.0824 60.2983 47.6011C60.0968 47.1198 59.9961 46.6124 59.9961 46.0789C59.9961 45.3104 60.205 44.6724 60.6267 44.165C61.0446 43.6539 61.6565 43.2286 62.4513 42.8891V42.8369C61.6715 42.4526 61.1267 41.9863 60.817 41.4416C60.5073 40.8969 60.3543 40.2887 60.3543 39.6172C60.3543 39.1247 60.4625 38.6621 60.6752 38.2331C60.8879 37.8003 61.2088 37.4123 61.6379 37.0728C62.0409 36.7482 62.5558 36.4908 63.1789 36.2968C63.8021 36.1028 64.4961 36.0021 65.2722 36.0021C66.0931 36.0021 66.8095 36.0916 67.4177 36.267C68.0297 36.4423 68.5297 36.6773 68.9215 36.9646C69.3245 37.2594 69.6342 37.6138 69.8506 38.0279C70.0633 38.4457 70.1715 38.8972 70.1715 39.3822C70.1715 40.0164 69.9886 40.5909 69.623 41.1058C69.2573 41.6169 68.6976 42.0497 67.9439 42.3966V42.4489C68.8245 42.8108 69.4737 43.2808 69.8879 43.8666C70.3021 44.4448 70.5073 45.1462 70.5073 45.9595ZM67.2125 46.105C67.2125 45.6685 67.123 45.3328 66.9364 45.0977C66.7498 44.8627 66.3543 44.6015 65.7498 44.3068C65.5782 44.221 65.3319 44.1165 65.0073 43.9934C64.6827 43.8666 64.3953 43.7509 64.1453 43.6427C63.914 43.8778 63.7088 44.165 63.5259 44.512C63.3431 44.859 63.2536 45.2358 63.2536 45.6462C63.2536 46.2692 63.4513 46.7691 63.8431 47.1422C64.2349 47.5153 64.7536 47.6981 65.3954 47.6981C65.567 47.6981 65.7648 47.672 65.9886 47.6123C66.2125 47.5563 66.4103 47.4668 66.5819 47.3474C66.7722 47.2094 66.9252 47.0452 67.0409 46.8624C67.1565 46.6759 67.2125 46.4222 67.2125 46.105ZM66.9289 39.7739C66.9289 39.3187 66.7797 38.9569 66.4812 38.6808C66.1864 38.4084 65.7834 38.2704 65.2722 38.2704C64.7871 38.2704 64.3916 38.3935 64.0931 38.6397C63.7946 38.886 63.6453 39.1844 63.6453 39.5463C63.6453 39.9045 63.7349 40.1955 63.9177 40.4119C64.1006 40.632 64.3804 40.8334 64.7573 41.0163C64.9215 41.1021 65.1192 41.1879 65.3506 41.2774C65.5782 41.3669 65.8842 41.4863 66.2647 41.6281C66.4961 41.3222 66.664 41.0274 66.7722 40.7439C66.873 40.4641 66.9289 40.1395 66.9289 39.7739Z" fill="white" fill-opacity="0.7"/>
<path d="M82.4181 45.9595C82.4181 46.5341 82.2987 47.0713 82.0636 47.5675C81.8285 48.06 81.4852 48.489 81.0337 48.8472C80.5823 49.2053 80.03 49.4889 79.377 49.6941C78.724 49.8993 77.9815 50 77.142 50C76.2464 50 75.4666 49.8955 74.7949 49.6903C74.1233 49.4814 73.5711 49.2053 73.142 48.8509C72.7203 48.4965 72.4069 48.0824 72.2054 47.6011C72.0039 47.1198 71.8994 46.6124 71.8994 46.0789C71.8994 45.3104 72.1084 44.6724 72.53 44.165C72.9517 43.6539 73.5599 43.2286 74.3584 42.8891V42.8369C73.5785 42.4526 73.0338 41.9863 72.724 41.4416C72.4143 40.8969 72.2614 40.2887 72.2614 39.6172C72.2614 39.1247 72.3696 38.6621 72.5823 38.2331C72.7949 37.8003 73.1158 37.4123 73.5449 37.0728C73.9517 36.7482 74.4629 36.4908 75.086 36.2968C75.7091 36.1028 76.4031 36.0021 77.1793 36.0021C78.0002 36.0021 78.7166 36.0916 79.3248 36.267C79.9367 36.4423 80.4367 36.6773 80.8285 36.9646C81.2315 37.2594 81.5412 37.6138 81.7576 38.0279C81.974 38.4457 82.0785 38.8972 82.0785 39.3822C82.0785 40.0164 81.8957 40.5909 81.53 41.1058C81.1643 41.6169 80.6046 42.0497 79.8509 42.3966V42.4489C80.7315 42.8108 81.3808 43.2808 81.7987 43.8666C82.2091 44.4448 82.4181 45.1462 82.4181 45.9595ZM79.1233 46.105C79.1233 45.6685 79.03 45.3328 78.8472 45.0977C78.6643 44.8627 78.2651 44.6015 77.6606 44.3068C77.489 44.221 77.239 44.1165 76.9143 43.9934C76.5897 43.8666 76.3061 43.7509 76.0524 43.6427C75.8211 43.8778 75.6158 44.165 75.433 44.512C75.2539 44.859 75.1606 45.2358 75.1606 45.6462C75.1606 46.2692 75.3584 46.7691 75.7502 47.1422C76.142 47.5153 76.6606 47.6981 77.3024 47.6981C77.474 47.6981 77.6718 47.672 77.8957 47.6123C78.1196 47.5563 78.3173 47.4668 78.489 47.3474C78.6793 47.2094 78.8323 47.0452 78.9479 46.8624C79.0636 46.6759 79.1233 46.4222 79.1233 46.105ZM78.836 39.7739C78.836 39.3187 78.6867 38.9569 78.392 38.6808C78.0972 38.4084 77.6905 38.2704 77.183 38.2704C76.6979 38.2704 76.3024 38.3935 76.0039 38.6397C75.7054 38.886 75.5561 39.1844 75.5561 39.5463C75.5561 39.9045 75.6457 40.1955 75.8285 40.4119C76.0076 40.632 76.2912 40.8334 76.6681 41.0163C76.8323 41.1021 77.03 41.1879 77.2614 41.2774C77.489 41.3669 77.7949 41.4863 78.1718 41.6281C78.4031 41.3222 78.5711 41.0274 78.6793 40.7439C78.7838 40.4641 78.836 40.1395 78.836 39.7739Z" fill="white" fill-opacity="0.7"/>
<path d="M87.6901 46.1498H84.5264V49.6866H87.6901V46.1498Z" fill="white" fill-opacity="0.7"/>
<path d="M95.3467 49.9626C94.5183 49.9626 93.7646 49.8582 93.078 49.6493C92.3915 49.4366 91.7945 49.112 91.2907 48.6755C90.7907 48.239 90.3989 47.6869 90.1191 47.0228C89.8392 46.3587 89.7012 45.579 89.7012 44.6761C89.7012 43.7098 89.8542 42.8891 90.1564 42.2101C90.4586 41.5348 90.8691 40.9752 91.3877 40.5349C91.8877 40.1171 92.4736 39.8037 93.1527 39.6022C93.828 39.4008 94.5295 39.3 95.2609 39.3C95.8169 39.3 96.3691 39.3635 96.9213 39.4941C97.4773 39.6246 98.0295 39.8261 98.5892 40.1096V42.8033H98.1862C98.0631 42.6801 97.9064 42.5496 97.7273 42.4041C97.5445 42.2586 97.3467 42.128 97.134 42.0049C96.9101 41.878 96.6527 41.7736 96.3654 41.684C96.0818 41.5982 95.7609 41.5534 95.4101 41.5534C94.6116 41.5534 93.996 41.837 93.5594 42.4003C93.1228 42.9637 92.9027 43.721 92.9027 44.6761C92.9027 45.6946 93.1377 46.4557 93.6042 46.9556C94.0706 47.4555 94.69 47.7055 95.4661 47.7055C95.8579 47.7055 96.2049 47.6607 96.5034 47.5675C96.8019 47.4779 97.0594 47.3697 97.2721 47.2429C97.481 47.116 97.6601 46.9817 97.8094 46.8512C97.9587 46.7131 98.0855 46.5937 98.1937 46.4818H98.5967V49.1792C98.4176 49.2575 98.2124 49.3471 97.9773 49.4478C97.7422 49.5485 97.5034 49.6306 97.2571 49.6978C96.9549 49.7836 96.6676 49.847 96.4064 49.8918C96.1303 49.9403 95.7833 49.9626 95.3467 49.9626Z" fill="white" fill-opacity="0.7"/>
<path d="M109.962 44.6425C109.962 46.3027 109.511 47.6122 108.612 48.5636C107.709 49.5187 106.436 49.9962 104.787 49.9962C103.153 49.9962 101.88 49.5187 100.973 48.5636C100.067 47.6085 99.6152 46.299 99.6152 44.6425C99.6152 42.9674 100.07 41.6542 100.973 40.7028C101.88 39.7552 103.153 39.2776 104.787 39.2776C106.429 39.2776 107.701 39.7552 108.608 40.7103C109.507 41.6691 109.962 42.9786 109.962 44.6425ZM106.761 44.6612C106.761 44.0605 106.712 43.5643 106.612 43.1651C106.514 42.7659 106.376 42.4488 106.205 42.2063C106.022 41.9564 105.813 41.781 105.582 41.6803C105.347 41.5795 105.082 41.531 104.787 41.531C104.507 41.531 104.253 41.5721 104.026 41.6616C103.802 41.7474 103.593 41.9153 103.399 42.1615C103.22 42.3966 103.078 42.7137 102.97 43.1241C102.862 43.5307 102.809 44.0456 102.809 44.6612C102.809 45.2768 102.862 45.7767 102.962 46.1572C103.063 46.5378 103.194 46.8437 103.354 47.0675C103.522 47.3026 103.731 47.4742 103.981 47.5786C104.231 47.6868 104.507 47.7428 104.813 47.7428C105.063 47.7428 105.317 47.6906 105.578 47.5786C105.835 47.4705 106.044 47.31 106.197 47.0936C106.384 46.8362 106.522 46.5266 106.619 46.1609C106.712 45.8028 106.761 45.3029 106.761 44.6612Z" fill="white" fill-opacity="0.7"/>
<path d="M123.854 49.6866V44.6351C123.854 44.1389 123.847 43.7173 123.828 43.3741C123.813 43.0309 123.757 42.7511 123.672 42.5384C123.582 42.322 123.444 42.1653 123.257 42.0646C123.071 41.9676 122.81 41.9191 122.47 41.9191C122.231 41.9191 122 41.9713 121.769 42.0758C121.537 42.1802 121.287 42.3295 121.015 42.5235V49.6903H117.873V44.6388C117.873 44.1464 117.866 43.7285 117.843 43.3853C117.821 43.0383 117.769 42.7585 117.679 42.5459C117.59 42.3295 117.451 42.1728 117.265 42.0721C117.078 41.9751 116.817 41.9266 116.485 41.9266C116.228 41.9266 115.981 41.9862 115.735 42.1056C115.493 42.225 115.254 42.3668 115.022 42.5309V49.6978H111.896V39.6023H115.022V40.7103C115.534 40.2701 116.015 39.9306 116.47 39.6844C116.922 39.4381 117.429 39.315 117.993 39.315C118.608 39.315 119.146 39.4642 119.608 39.7552C120.071 40.05 120.425 40.4902 120.668 41.0722C121.269 40.5089 121.832 40.0761 122.366 39.7702C122.896 39.468 123.437 39.315 123.981 39.315C124.444 39.315 124.858 39.3896 125.228 39.5389C125.597 39.6881 125.91 39.9119 126.164 40.2141C126.444 40.5387 126.653 40.923 126.791 41.3707C126.929 41.8184 127 42.4004 127 43.1204V49.6978H123.854V49.6866Z" fill="white" fill-opacity="0.7"/>
<path d="M8.08594 45.8289V39.8373H10.7124C11.231 39.8373 11.6376 39.8895 11.9063 39.9902C12.1861 40.1096 12.3987 40.2887 12.5629 40.5685C12.7345 40.8409 12.8091 41.1393 12.8091 41.4676C12.8091 41.8929 12.6711 42.2511 12.4025 42.5458C12.1301 42.8294 11.716 43.0084 11.1489 43.1017C11.3578 43.2024 11.5108 43.292 11.6227 43.3927C11.8466 43.6166 12.0667 43.874 12.2644 44.1948L13.2941 45.8252H12.3092L11.5406 44.5866C11.3131 44.2135 11.1116 43.9486 10.9661 43.7546C10.8206 43.5643 10.6863 43.4338 10.5706 43.3554C10.4513 43.2771 10.3393 43.2136 10.2162 43.1913C10.1267 43.1726 9.98864 43.1614 9.77972 43.1614H8.87686V45.8252H8.08594V45.8289ZM8.87313 42.46H10.552C10.9101 42.46 11.1788 42.4227 11.384 42.363C11.5891 42.2809 11.7421 42.1541 11.8428 42.0011C11.9436 41.8295 11.9995 41.6616 11.9995 41.4714C11.9995 41.1878 11.8913 40.9565 11.6973 40.7774C11.4959 40.6021 11.1788 40.5088 10.746 40.5088H8.87313V42.46Z" fill="white" fill-opacity="0.7"/>
<path fill-rule="evenodd" clip-rule="evenodd" d="M5.99633 42.8369C5.99633 40.3447 8.01126 38.3114 10.4926 38.3114C12.9739 38.3114 14.9889 40.3447 14.9889 42.8369C14.9889 45.3365 12.9739 47.3623 10.4926 47.3623C8.01499 47.3586 5.99633 45.3328 5.99633 42.8369ZM10.4926 48.2055C13.4254 48.2055 15.8172 45.7954 15.8172 42.8369C15.8172 39.8783 13.4254 37.4683 10.4926 37.4683C7.55977 37.4683 5.16797 39.8783 5.16797 42.8369C5.16797 45.7954 7.55977 48.2055 10.4926 48.2055Z" fill="white" fill-opacity="0.7"/>
</svg>
