<svg width="60" height="60" viewBox="0 0 60 60" fill="none" xmlns="http://www.w3.org/2000/svg">
<rect width="60" height="60" rx="10" fill="#EBE5F1"/>
<path d="M23.9688 35.9375H44.2188C44.6406 35.9375 45.0625 35.5684 45.0625 35.0938V28.3438C45.0625 27.9219 44.6406 27.5 44.2188 27.5H41.6875V21.5938C41.6875 21.1719 41.2656 20.75 40.8438 20.75H23.9688C23.4941 20.75 23.125 21.1719 23.125 21.5938V35.0938C23.125 35.5684 23.4941 35.9375 23.9688 35.9375ZM34.9375 23.2812H39.1562V27.5H34.9375V23.2812ZM34.9375 30.0312H42.5312V33.4062H34.9375V30.0312ZM25.6562 23.2812H32.4062V33.4062H25.6562V23.2812ZM45.9062 38.4688H20.5938V18.2188C20.5938 17.7969 20.1719 17.375 19.75 17.375H13.8438C13.3691 17.375 13 17.7969 13 18.2188V19.0625C13 19.5371 13.3691 19.9062 13.8438 19.9062H18.0625V40.1562C18.0625 40.6309 18.4316 41 18.9062 41H21.543C21.4902 41.2637 21.4375 41.5801 21.4375 41.8438C21.4375 43.2676 22.5449 44.375 23.9688 44.375C25.3398 44.375 26.5 43.2676 26.5 41.8438C26.5 41.5801 26.3945 41.2637 26.3418 41H36.7832C36.6777 41.2637 36.625 41.5801 36.625 41.8438C36.625 43.2676 37.7324 44.375 39.1562 44.375C40.5273 44.375 41.6875 43.2676 41.6875 41.8438C41.6875 41.5801 41.582 41.2637 41.5293 41H45.9062C46.3281 41 46.75 40.6309 46.75 40.1562V39.3125C46.75 38.8906 46.3281 38.4688 45.9062 38.4688Z" fill="#390073"/>
</svg>
