<svg width="60" height="60" viewBox="0 0 60 60" fill="none" xmlns="http://www.w3.org/2000/svg">
<rect width="60" height="60" rx="10" fill="#EBE5F1"/>
<path d="M40.8438 34.9375H31.5625V29.0312C31.5625 28.6094 31.1406 28.1875 30.7188 28.1875H18.9062C18.4316 28.1875 18.0625 28.6094 18.0625 29.0312V42.5312C18.0625 43.0059 18.4316 43.375 18.9062 43.375H40.8438C41.2656 43.375 41.6875 43.0059 41.6875 42.5312V35.7812C41.6875 35.3594 41.2656 34.9375 40.8438 34.9375ZM29.0312 40.8438H20.5938V37.4688H29.0312V40.8438ZM29.0312 34.0938H20.5938V30.7188H29.0312V34.0938ZM39.1562 40.8438H31.5625V37.4688H39.1562V40.8438ZM44.4824 22.2285L31.2461 16.6914C30.3496 16.3223 29.3477 16.3223 28.4512 16.6914L15.2148 22.2285C13.8438 22.7559 13 24.0742 13 25.5508V42.5312C13 43.0059 13.3691 43.375 13.8438 43.375H14.6875C15.1094 43.375 15.5312 43.0059 15.5312 42.5312V25.5508C15.5312 25.0762 15.7422 24.707 16.1641 24.5488L29.4531 19.0117C29.7168 18.9062 29.9805 18.9062 30.2441 19.0117L43.5332 24.5488C43.9551 24.707 44.2188 25.0762 44.2188 25.5508V42.5312C44.2188 43.0059 44.5879 43.375 45.0625 43.375H45.9062C46.3281 43.375 46.75 43.0059 46.75 42.5312V25.5508C46.75 24.0742 45.8535 22.7559 44.4824 22.2285Z" fill="#390073"/>
</svg>
