<svg width="60" height="60" viewBox="0 0 60 60" fill="none" xmlns="http://www.w3.org/2000/svg">
<rect width="60" height="60" rx="10" fill="#EBE5F1"/>
<path d="M38.9453 24.4414L37.1523 19.1152C36.8359 18.1133 35.8867 17.375 34.7793 17.375H18.168C17.0605 17.375 16.1113 18.1133 15.7949 19.1152L13.1055 27.1309C13 27.3945 13 27.6582 13 27.9219V41.8438C13 43.2676 14.1074 44.375 15.5312 44.375H36.625C42.2148 44.375 46.75 39.8398 46.75 34.25C46.75 29.5039 43.4277 25.4961 38.9453 24.4414ZM27.7656 19.9062H34.7793L36.2031 24.1777C33.5664 24.2832 31.1934 25.3906 29.4531 27.0781H27.7656V19.9062ZM18.168 19.9062H25.2344V27.0781H15.7949L18.168 19.9062ZM15.5312 41.8438V29.6094H27.6074C26.8691 31.0332 26.5 32.6152 26.5 34.25C26.5 37.3086 27.8184 39.998 29.9277 41.8438H15.5312ZM36.625 41.8438C32.4062 41.8438 29.0312 38.4688 29.0312 34.25C29.0312 30.084 32.4062 26.6562 36.625 26.6562C40.791 26.6562 44.2188 30.084 44.2188 34.25C44.2188 38.4688 40.791 41.8438 36.625 41.8438ZM40 31.0332C39.8418 30.875 39.5781 30.875 39.4199 31.0332L35.7285 34.6719L34.1465 33.0371C33.9883 32.8789 33.7246 32.8789 33.5664 33.0371L32.5645 34.0391C32.4062 34.1973 32.4062 34.4609 32.5645 34.6191L35.4121 37.5195C35.5703 37.6777 35.834 37.6777 35.9922 37.5195L41.002 32.6152C41.1602 32.457 41.1602 32.1934 41.002 31.9824L40 31.0332Z" fill="#390073"/>
</svg>
