<svg width="60" height="60" viewBox="0 0 60 60" fill="none" xmlns="http://www.w3.org/2000/svg">
<rect width="60" height="60" rx="10" fill="#EBE5F1"/>
<path d="M31.2891 29.875L37.6699 23.4941L40.5176 26.3418C40.9395 26.7109 41.625 26.4473 41.625 25.8672V18.6953C41.625 18.3789 41.3086 18.0625 40.9922 18.0625H33.8203C33.2402 18.0625 32.9766 18.748 33.3457 19.1699L36.1934 22.0176L29.8125 28.3984L23.3789 22.0176L26.2266 19.1699C26.6484 18.748 26.332 18.0625 25.8047 18.0625H18.6328C18.2637 18.0625 18 18.3789 18 18.6953V25.8672C18 26.4473 18.6328 26.7109 19.0547 26.3418L21.9023 23.4941L28.2832 29.875L21.9023 36.3086L19.0547 33.4609C18.6328 33.0391 17.9473 33.3555 17.9473 33.8828V41.0547C17.9473 41.4238 18.2637 41.6875 18.5801 41.6875H25.752C26.332 41.6875 26.6484 41.0547 26.2266 40.6328L23.3789 37.7852L29.8125 31.4043L36.1934 37.7852L33.3457 40.6328C32.9766 41.0547 33.2402 41.7402 33.8203 41.7402H40.9922C41.3086 41.7402 41.625 41.4238 41.625 41.1074V33.9355C41.625 33.3555 40.9395 33.0391 40.5176 33.4609L37.6699 36.3086L31.2891 29.875Z" fill="#390073"/>
</svg>
