<svg width="60" height="60" viewBox="0 0 60 60" fill="none" xmlns="http://www.w3.org/2000/svg">
<rect width="60" height="60" rx="10" fill="#EBE5F1"/>
<path d="M42.9473 26.6035C42.4727 22.6484 38.834 19.6426 34.6152 18.2715C36.5137 20.3281 37.8848 23.5449 37.9375 27.5L32.5586 34.25H30.7656V27.5H36.25C36.25 21.4355 32.6113 17.375 29.5 17.375C26.3359 17.375 22.75 21.4355 22.75 27.5H28.2344V34.25H26.3887L21.0625 27.5C21.0625 23.5449 22.4336 20.3281 24.332 18.2715C20.1133 19.6426 16.4746 22.6484 16 26.6035C15.9473 27.1309 16.3164 27.5 16.8438 27.5H17.8457L24.4375 35.8848V35.9375V42.6875C24.4375 43.6367 25.1758 44.375 26.125 44.375H32.875C33.7715 44.375 34.5625 43.6367 34.5625 42.6875V35.9375L34.5098 35.8848L41.1016 27.5H42.1035C42.6309 27.5 43.0527 27.1309 42.9473 26.6035ZM32.0312 41.4219C32.0312 41.6855 31.8203 41.8438 31.6094 41.8438H27.3906C27.127 41.8438 26.9688 41.6855 26.9688 41.4219V37.2031C26.9688 36.9922 27.127 36.7812 27.3906 36.7812H31.6094C31.8203 36.7812 32.0312 36.9922 32.0312 37.2031V41.4219Z" fill="#390073"/>
</svg>
